<?xml version="1.0" encoding="UTF-8"?>
<svg version="1.1" xmlns="http://www.w3.org/2000/svg" width="500" height="500">
<path d="M0 0 C1.727379 -0.01210762 1.727379 -0.01210762 3.48965454 -0.02445984 C5.93221552 -0.03826747 8.37479552 -0.04900441 10.81738281 -0.05688477 C13.26633535 -0.06829093 15.71526534 -0.08855689 18.1640625 -0.1184082 C71.35877161 -0.76527321 122.59475538 16.34134701 165.1640625 48.23828125 C166.02016113 48.87588379 166.02016113 48.87588379 166.89355469 49.52636719 C176.59326172 56.79704437 185.43851607 64.83510722 194.1640625 73.23828125 C194.958125 73.99109375 195.7521875 74.74390625 196.5703125 75.51953125 C201.91761186 80.69707507 206.58340186 86.38170479 211.1640625 92.23828125 C211.62329102 92.82109863 212.08251953 93.40391602 212.55566406 94.00439453 C220.60125114 104.26991784 227.65958067 114.93680665 234.1640625 126.23828125 C234.5569043 126.91407227 234.94974609 127.58986328 235.35449219 128.28613281 C250.69829676 154.9579295 259.73263147 184.89439386 264.1640625 215.23828125 C264.3384082 216.42131836 264.51275391 217.60435547 264.69238281 218.82324219 C265.33421003 224.07047523 265.38211513 229.31282736 265.4375 234.59375 C265.45007339 235.68084259 265.46264679 236.76793518 265.4756012 237.88796997 C265.89796607 283.17637098 265.89796607 283.17637098 260.1640625 305.23828125 C259.7626001 306.81730225 259.7626001 306.81730225 259.35302734 308.42822266 C257.52762351 315.44645662 255.44652205 322.3559988 253.1640625 329.23828125 C252.88836426 330.07504395 252.61266602 330.91180664 252.32861328 331.77392578 C242.76491134 360.30496966 227.96607967 386.56365923 208.1640625 409.23828125 C207.48859375 410.02976562 206.813125 410.82125 206.1171875 411.63671875 C204.48914927 413.52613926 202.83355061 415.38546151 201.1640625 417.23828125 C200.44734375 418.04652344 199.730625 418.85476563 198.9921875 419.6875 C191.25360336 428.37393085 183.3234319 436.04613507 174.1640625 443.23828125 C173.59574707 443.6883252 173.02743164 444.13836914 172.44189453 444.60205078 C119.0281786 486.65975353 52.42013931 505.18970964 -15.0234375 497.48828125 C-65.26309807 490.95605569 -114.45591462 469.77065478 -151.35546875 434.6015625 C-153.41865618 432.63584849 -155.51817951 430.80408714 -157.7109375 428.98828125 C-185.4575509 404.75316872 -206.63736143 369.67976471 -218.8359375 335.23828125 C-219.29758301 333.93987305 -219.29758301 333.93987305 -219.76855469 332.61523438 C-224.73269121 318.41272047 -228.15584916 304.03231847 -230.8359375 289.23828125 C-231.11522095 287.9073645 -231.11522095 287.9073645 -231.40014648 286.54956055 C-233.65427821 274.57025864 -233.27477549 262.31866126 -233.2734375 250.17578125 C-233.27483734 248.96852386 -233.27623718 247.76126648 -233.27767944 246.51742554 C-233.26046778 228.50429806 -232.36779656 211.73373434 -227.8359375 194.23828125 C-227.43304647 192.51375405 -227.03319503 190.78851327 -226.63671875 189.0625 C-216.01076264 144.42726774 -192.63353719 104.96838894 -160.8359375 72.23828125 C-160.27583984 71.66062012 -159.71574219 71.08295898 -159.13867188 70.48779297 C-133.14221423 44.05707966 -99.84009909 24.08469739 -64.8359375 12.23828125 C-64.0315625 11.96290527 -63.2271875 11.6875293 -62.3984375 11.40380859 C-48.18782669 6.61983876 -33.61076898 3.70054325 -18.8359375 1.23828125 C-17.80815186 1.05797363 -16.78036621 0.87766602 -15.72143555 0.69189453 C-10.4752018 0.07942188 -5.2780796 0.03581877 0 0 Z " fill="#262334" transform="translate(233.8359375,0.76171875)"/>
<path d="M0 0 C14.52 0 29.04 0 44 0 C44 6.93 44 13.86 44 21 C50.93 21 57.86 21 65 21 C65 28.26 65 35.52 65 43 C72.26 43 79.52 43 87 43 C87 49.93 87 56.86 87 64 C93.93 64 100.86 64 108 64 C108 42.88 108 21.76 108 0 C122.19 0 136.38 0 151 0 C151 49.5 151 99 151 150 C136.81 150 122.62 150 108 150 C108 135.81 108 121.62 108 107 C101.07 107 94.14 107 87 107 C87 100.07 87 93.14 87 86 C79.74 86 72.48 86 65 86 C65 79.07 65 72.14 65 65 C58.07 65 51.14 65 44 65 C44 93.38 44 121.76 44 151 C29.48 151 14.96 151 0 151 C0 101.17 0 51.34 0 0 Z " fill="#D4A776" transform="translate(77,171)"/>
<path d="M0 0 C14.19 0 28.38 0 43 0 C43 42.57 43 85.14 43 129 C35.74 129 28.48 129 21 129 C21 135.93 21 142.86 21 150 C-14.31 150 -49.62 150 -86 150 C-86 143.07 -86 136.14 -86 129 C-93.26 129 -100.52 129 -108 129 C-108 121.74 -108 114.48 -108 107 C-93.81 107 -79.62 107 -65 107 C-65 114.26 -65 121.52 -65 129 C-43.55 129 -22.1 129 0 129 C0 86.43 0 43.86 0 0 Z " fill="#D5A877" transform="translate(358,171)"/>
<path d="M0 0 C2.64 0 5.28 0 8 0 C8 0.99 8 1.98 8 3 C8.99 3 9.98 3 11 3 C11 4.32 11 5.64 11 7 C18.92 6.505 18.92 6.505 27 6 C27 4.68 27 3.36 27 2 C30.4352048 -0.29013653 31.985331 -0.17842973 36 0 C36.495 1.485 36.495 1.485 37 3 C37.66 3 38.32 3 39 3 C39 5.31 39 7.62 39 10 C39.99 10 40.98 10 42 10 C42 17.26 42 24.52 42 32 C40.35 32.66 38.7 33.32 37 34 C36.67 34.99 36.34 35.98 36 37 C35.01 37 34.02 37 33 37 C33.99 39.97 34.98 42.94 36 46 C37.32 46 38.64 46 40 46 C40 47.65 40 49.3 40 51 C39.01 51 38.02 51 37 51 C37 53.31 37 55.62 37 58 C36.01 58 35.02 58 34 58 C34 58.99 34 59.98 34 61 C32.02 61 30.04 61 28 61 C27.61781233 59.34385343 27.28604898 57.67542976 27 56 C27.33 55.67 27.66 55.34 28 55 C23.05 54.67 18.1 54.34 13 54 C12.27938394 57.58760109 12.27938394 57.58760109 11.625 61.1875 C11 63 11 63 8 65 C6.35 65 4.7 65 3 65 C3 61.37 3 57.74 3 54 C1.35 53.67 -0.3 53.34 -2 53 C-2 52.34 -2 51.68 -2 51 C-0.35 51 1.3 51 3 51 C3 50.34 3 49.68 3 49 C1.35 48.67 -0.3 48.34 -2 48 C-0.68 45.69 0.64 43.38 2 41 C2.99 41 3.98 41 5 41 C5 39.68 5 38.36 5 37 C3.35 36.67 1.7 36.34 0 36 C0 35.34 0 34.68 0 34 C-0.66 34 -1.32 34 -2 34 C-2 33.34 -2 32.68 -2 32 C-2.66 32 -3.32 32 -4 32 C-4 24.74 -4 17.48 -4 10 C-3.34 10 -2.68 10 -2 10 C-1.855625 8.906875 -1.71125 7.81375 -1.5625 6.6875 C-1 3 -1 3 0 0 Z " fill="#E9A2C4" transform="translate(90,98)"/>
<path d="M0 0 C9.24 0 18.48 0 28 0 C28.495 2.97 28.495 2.97 29 6 C29.99 6.33 30.98 6.66 32 7 C32 7.99 32 8.98 32 10 C32.66 10 33.32 10 34 10 C34.05428973 12.22889496 34.09292338 14.45817471 34.125 16.6875 C34.14820313 17.92886719 34.17140625 19.17023438 34.1953125 20.44921875 C34.01032021 23.81237857 33.45767895 25.9985587 32 29 C33.32 29 34.64 29 36 29 C36 31.64 36 34.28 36 37 C35.34 37 34.68 37 34 37 C34 37.66 34 38.32 34 39 C32.35 39 30.7 39 29 39 C29 37.68 29 36.36 29 35 C28.01 35.33 27.02 35.66 26 36 C26.33 36.33 26.66 36.66 27 37 C27.32446337 40.10042773 27.51334441 43.2020725 27.71875 46.3125 C27.70607799 48.91596752 27.70607799 48.91596752 29 50 C29.14115161 52.67058851 29.04247107 55.32432238 29 58 C26.1875 58.25 26.1875 58.25 23 58 C21.0625 56.1875 21.0625 56.1875 20 54 C20.33 53.01 20.66 52.02 21 51 C19.68 51 18.36 51 17 51 C17 50.01 17 49.02 17 48 C15.88625 48.020625 14.7725 48.04125 13.625 48.0625 C10 48 10 48 8 47 C8 48.98 8 50.96 8 53 C5.69 53 3.38 53 1 53 C0.505 51.515 0.505 51.515 0 50 C-0.66 50 -1.32 50 -2 50 C-3.35439668 47.29120665 -3.06501451 44.99066732 -3 42 C-2.01 42 -1.02 42 0 42 C0 41.01 0 40.02 0 39 C-3.63 39 -7.26 39 -11 39 C-9.21739173 35.43478346 -7.24007711 32.28544643 -5 29 C-6.32 29 -7.64 29 -9 29 C-9 28.34 -9 27.68 -9 27 C-9.99 27 -10.98 27 -12 27 C-12 25.35 -12 23.7 -12 22 C-9.03 22 -6.06 22 -3 22 C-2.67 23.32 -2.34 24.64 -2 26 C-1.34 26 -0.68 26 0 26 C-0.33 22.7 -0.66 19.4 -1 16 C-4.96 16 -8.92 16 -13 16 C-13 14.68 -13 13.36 -13 12 C-12.01 12 -11.02 12 -10 12 C-9.67 10.35 -9.34 8.7 -9 7 C-8.34 7 -7.68 7 -7 7 C-7 6.34 -7 5.68 -7 5 C-6.34 5 -5.68 5 -5 5 C-5 4.01 -5 3.02 -5 2 C-3.35 2 -1.7 2 0 2 C0 1.34 0 0.68 0 0 Z " fill="#CE9B6E" transform="translate(252,204)"/>
<path d="M0 0 C3.05070757 -0.2878026 5.95999538 -0.44198649 9 0 C11.52623559 2.83244597 12 4.21564776 12 8 C12.66 8 13.32 8 14 8 C14.33 8.66 14.66 9.32 15 10 C21.93 10.33 28.86 10.66 36 11 C36 12.32 36 13.64 36 15 C36.99 15 37.98 15 39 15 C39.06058594 15.85464844 39.12117188 16.70929688 39.18359375 17.58984375 C39.26738281 18.69457031 39.35117187 19.79929688 39.4375 20.9375 C39.51871094 22.03964844 39.59992188 23.14179688 39.68359375 24.27734375 C39.70418084 26.91109903 39.70418084 26.91109903 41 28 C41.14115161 30.67058851 41.04247107 33.32432238 41 36 C38.1875 36.25 38.1875 36.25 35 36 C33.0625 34.1875 33.0625 34.1875 32 32 C32.495 30.515 32.495 30.515 33 29 C31.68 29 30.36 29 29 29 C29 28.01 29 27.02 29 26 C27.88625 26.020625 26.7725 26.04125 25.625 26.0625 C22 26 22 26 20 25 C20 26.98 20 28.96 20 31 C17.69 31 15.38 31 13 31 C12.67 30.01 12.34 29.02 12 28 C11.34 28 10.68 28 10 28 C8.64560332 25.29120665 8.93498549 22.99066732 9 20 C9.99 20 10.98 20 12 20 C12 19.01 12 18.02 12 17 C8.37 17 4.74 17 1 17 C2.78260827 13.43478346 4.75992289 10.28544643 7 7 C5.68 7 4.36 7 3 7 C3 6.34 3 5.68 3 5 C2.01 5 1.02 5 0 5 C0 3.35 0 1.7 0 0 Z " fill="#6FD8EF" transform="translate(240,226)"/>
<path d="M0 0 C4.0829596 -0.14518182 8.16525641 -0.23403347 12.25 -0.3125 C13.40886719 -0.35439453 14.56773438 -0.39628906 15.76171875 -0.43945312 C24.26402391 -0.56231881 24.26402391 -0.56231881 27.78125 2.125 C29.18570892 5.43808259 29.40765058 7.72594927 29.25 11.3125 C29.21390625 12.38113281 29.1778125 13.44976562 29.140625 14.55078125 C29.09421875 15.35902344 29.0478125 16.16726562 29 17 C28.34 17 27.68 17 27 17 C26.690625 17.639375 26.38125 18.27875 26.0625 18.9375 C25 21 25 21 24 22 C20.23669354 22.28055826 16.46001791 22.23183014 12.6875 22.25 C11.62853516 22.270625 10.56957031 22.29125 9.47851562 22.3125 C8.45822266 22.31765625 7.43792969 22.3228125 6.38671875 22.328125 C4.98232544 22.34214355 4.98232544 22.34214355 3.54956055 22.35644531 C0.54932641 21.93699287 -0.8343174 21.08907471 -3 19 C-3 18.34 -3 17.68 -3 17 C-3.66 17 -4.32 17 -5 17 C-5 12.71 -5 8.42 -5 4 C-4.34 4 -3.68 4 -3 4 C-3 3.34 -3 2.68 -3 2 C-2.01 2 -1.02 2 0 2 C0 1.34 0 0.68 0 0 Z " fill="#E4AC80" transform="translate(100,108)"/>
<path d="M0 0 C0.33 0 0.66 0 1 0 C1 49.5 1 99 1 150 C15.52 150 30.04 150 45 150 C45 121.62 45 93.24 45 64 C51.93 64 58.86 64 66 64 C66 70.6 66 77.2 66 84 C65.67 84 65.34 84 65 84 C63.66742597 72.47835991 63.66742597 72.47835991 65 67 C63.35 67 61.7 67 60 67 C60 66.34 60 65.68 60 65 C54.555 65.99 54.555 65.99 49 67 C47.35491501 72.01832032 46.7281842 76.44449794 46.82055664 81.73950195 C46.82734688 82.8481234 46.82734688 82.8481234 46.83427429 83.97914124 C46.84516669 85.57075396 46.86062383 87.16234085 46.88023567 88.75387001 C46.91055245 91.27117952 46.92724843 93.78825508 46.94029236 96.30570984 C46.97993905 103.45829848 47.0454335 110.61060142 47.11645508 117.76293945 C47.15906299 122.14759816 47.18721815 126.53216372 47.20675468 130.91698265 C47.2173413 132.58723794 47.23376059 134.2574666 47.25605965 135.92760658 C47.28710572 138.25435482 47.29999784 140.58054786 47.30883789 142.9074707 C47.32276581 143.59993896 47.33669373 144.29240723 47.3510437 145.00585938 C47.3473053 146.92134094 47.3473053 146.92134094 47 150 C43.90594081 152.06270613 43.24484176 152.25137335 39.74389648 152.25878906 C38.88968613 152.26509338 38.03547577 152.27139771 37.15538025 152.27789307 C35.77715843 152.27182037 35.77715843 152.27182037 34.37109375 152.265625 C32.95293114 152.26849518 32.95293114 152.26849518 31.50611877 152.27142334 C29.5080641 152.27278418 27.51000057 152.26909478 25.51196289 152.26074219 C22.44592547 152.25002944 19.38047242 152.26064705 16.31445312 152.2734375 C14.3749987 152.27211612 12.43554464 152.26955417 10.49609375 152.265625 C9.57525497 152.26967346 8.6544162 152.27372192 7.70567322 152.27789307 C6.42908592 152.26843658 6.42908592 152.26843658 5.12670898 152.25878906 C4.37630844 152.25719788 3.6259079 152.25560669 2.85276794 152.25396729 C1 152 1 152 -1 150 C-1.24888897 147.50335217 -1.24888897 147.50335217 -1.24723816 144.28837585 C-1.25143265 143.07279999 -1.25562714 141.85722412 -1.25994873 140.60481262 C-1.25446475 139.25045697 -1.24878175 137.89610211 -1.24291992 136.54174805 C-1.24399242 135.12101148 -1.24593062 133.70027534 -1.24867249 132.27954102 C-1.25353046 128.41370157 -1.24585228 124.5479771 -1.23571944 120.68215156 C-1.22694908 116.63924266 -1.22869623 112.59633749 -1.2290802 108.55342102 C-1.22814275 101.75995964 -1.21944984 94.96654283 -1.20581055 88.1730957 C-1.19010313 80.32059532 -1.18481176 72.46814386 -1.1855461 64.6156289 C-1.18615687 57.06471242 -1.18104572 49.51381186 -1.17275429 41.96290016 C-1.16922523 38.74890837 -1.16739157 35.53492221 -1.16686058 32.32092857 C-1.16585471 28.53298788 -1.15973804 24.74508812 -1.14969444 20.95716095 C-1.14677757 19.56762505 -1.14554243 18.17808444 -1.14612198 16.78854561 C-1.14661412 14.88988432 -1.14032835 12.9912249 -1.13371277 11.09257507 C-1.13203692 10.03050181 -1.13036108 8.96842855 -1.12863445 7.87417126 C-1.00642286 5.14351059 -0.61673359 2.65841398 0 0 Z " fill="#251D20" transform="translate(76,172)"/>
<path d="M0 0 C9.24 0 18.48 0 28 0 C28.495 2.97 28.495 2.97 29 6 C29.99 6.33 30.98 6.66 32 7 C31.67 7.66 31.34 8.32 31 9 C17.14 8.505 17.14 8.505 3 8 C1.76240177 11.71279469 1.64391103 15.31306346 1.4375 19.1875 C1.39431641 19.93708984 1.35113281 20.68667969 1.30664062 21.45898438 C1.20077315 23.30578375 1.0999024 25.15286834 1 27 C1.66 27 2.32 27 3 27 C3 27.66 3 28.32 3 29 C12.24 29 21.48 29 31 29 C31 29.99 31 30.98 31 32 C31.99 32 32.98 32 34 32 C34 33.32 34 34.64 34 36 C34.99 36.495 34.99 36.495 36 37 C35.34 37 34.68 37 34 37 C34 37.66 34 38.32 34 39 C32.35 39 30.7 39 29 39 C29 37.68 29 36.36 29 35 C27.35 35.66 25.7 36.32 24 37 C24 35.68 24 34.36 24 33 C17.07 33 10.14 33 3 33 C2.505 31.515 2.505 31.515 2 30 C1.34 30 0.68 30 0 30 C-1.38594404 25.32925945 -1.06372054 20.84276108 -1 16 C-4.96 16 -8.92 16 -13 16 C-13 14.68 -13 13.36 -13 12 C-12.01 12 -11.02 12 -10 12 C-9.67 10.35 -9.34 8.7 -9 7 C-8.34 7 -7.68 7 -7 7 C-7 6.34 -7 5.68 -7 5 C-6.34 5 -5.68 5 -5 5 C-5 4.01 -5 3.02 -5 2 C-3.35 2 -1.7 2 0 2 C0 1.34 0 0.68 0 0 Z " fill="#5B5B5D" transform="translate(252,204)"/>
<path d="M0 0 C14.19 0 28.38 0 43 0 C43 49.5 43 99 43 150 C28.81 150 14.62 150 0 150 C0 135.81 0 121.62 0 107 C-6.93 107 -13.86 107 -21 107 C-21 100.73 -21 94.46 -21 88 C-20.67 88 -20.34 88 -20 88 C-19.67 93.94 -19.34 99.88 -19 106 C-17.57945312 105.98839844 -16.15890625 105.97679687 -14.6953125 105.96484375 C-12.83854298 105.95546613 -10.98177204 105.9463659 -9.125 105.9375 C-8.18785156 105.92912109 -7.25070313 105.92074219 -6.28515625 105.91210938 C-4.94130859 105.90727539 -4.94130859 105.90727539 -3.5703125 105.90234375 C-2.32918701 105.89448853 -2.32918701 105.89448853 -1.06298828 105.88647461 C1 106 1 106 3 107 C3 120.53 3 134.06 3 148 C15.87 148.33 28.74 148.66 42 149 C41.67 100.49 41.34 51.98 41 2 C28.79 2 16.58 2 4 2 C2.2204032 3.7795968 2.82875336 6.39529781 2.79467773 8.80493164 C2.77473251 10.04614273 2.75478729 11.28735382 2.73423767 12.56617737 C2.71725207 13.9308357 2.70037331 15.29549537 2.68359375 16.66015625 C2.66303064 18.04878875 2.64203434 19.4374149 2.62062073 20.82603455 C2.56533353 24.48714059 2.51595374 28.14830373 2.46777344 31.80950928 C2.41760679 35.54297997 2.36189554 39.27636738 2.30664062 43.00976562 C2.19897782 50.3397733 2.09755106 57.66985005 2 65 C-1.06562817 66.62252166 -3.0595386 67.24243867 -6.546875 67.1953125 C-7.81337891 67.18564453 -7.81337891 67.18564453 -9.10546875 67.17578125 C-9.97816406 67.15902344 -10.85085937 67.14226562 -11.75 67.125 C-13.08224609 67.11146484 -13.08224609 67.11146484 -14.44140625 67.09765625 C-16.62788058 67.07414577 -18.81380094 67.04128499 -21 67 C-21 66.34 -21 65.68 -21 65 C-14.07 65 -7.14 65 0 65 C0 43.55 0 22.1 0 0 Z " fill="#C9A683" transform="translate(185,171)"/>
<path d="M0 0 C2.625 -0.1875 2.625 -0.1875 5 0 C5 0.99 5 1.98 5 3 C5.66 3 6.32 3 7 3 C7 5.64 7 8.28 7 11 C6.34 11 5.68 11 5 11 C5 11.66 5 12.32 5 13 C4.34 13 3.68 13 3 13 C3 17.29 3 21.58 3 26 C3.66 26 4.32 26 5 26 C5.30550781 26.80824219 5.61101562 27.61648437 5.92578125 28.44921875 C7.71271231 31.18711801 7.71271231 31.18711801 10.30224609 31.50634766 C13.27128947 31.71890241 16.21092468 31.79564086 19.1875 31.8125 C20.22326172 31.83763672 21.25902344 31.86277344 22.32617188 31.88867188 C24.88449579 31.94761943 27.44110605 31.98384257 30 32 C30 32.99 30 33.98 30 35 C22.41 35 14.82 35 7 35 C6.505 33.515 6.505 33.515 6 32 C3.36 32 0.72 32 -2 32 C-2 31.34 -2 30.68 -2 30 C-2.99 30 -3.98 30 -5 30 C-5 23.4 -5 16.8 -5 10 C-4.01 9.67 -3.02 9.34 -2 9 C-2.04125 8.071875 -2.0825 7.14375 -2.125 6.1875 C-2 3 -2 3 0 0 Z " fill="#EDF0F2" transform="translate(92,99)"/>
<path d="M0 0 C2.64 0 5.28 0 8 0 C8 0.99 8 1.98 8 3 C8.99 3 9.98 3 11 3 C11 4.32 11 5.64 11 7 C18.92 6.505 18.92 6.505 27 6 C27 4.68 27 3.36 27 2 C30.4352048 -0.29013653 31.985331 -0.17842973 36 0 C36.495 1.485 36.495 1.485 37 3 C37.66 3 38.32 3 39 3 C39 5.31 39 7.62 39 10 C39.99 10 40.98 10 42 10 C42 17.26 42 24.52 42 32 C40.35 32.66 38.7 33.32 37 34 C37 34.66 37 35.32 37 36 C35.35 36 33.7 36 32 36 C32 35.01 32 34.02 32 33 C24.74 33 17.48 33 10 33 C10 32.01 10 31.02 10 30 C10.33 30.33 10.66 30.66 11 31 C14.78350955 31.30758516 18.58052188 31.278377 22.375 31.3125 C23.97601563 31.35600586 23.97601563 31.35600586 25.609375 31.40039062 C27.14464844 31.41295898 27.14464844 31.41295898 28.7109375 31.42578125 C30.12318604 31.44765503 30.12318604 31.44765503 31.56396484 31.4699707 C34.1672234 31.23273869 34.1672234 31.23273869 35.70556641 28.97338867 C36.34631104 27.99656128 36.34631104 27.99656128 37 27 C37.66 27 38.32 27 39 27 C38.91284983 25.06166004 38.80467036 23.1242571 38.6875 21.1875 C38.62949219 20.10855469 38.57148438 19.02960938 38.51171875 17.91796875 C37.9568427 14.75390454 37.36735977 14.01193847 35 12 C35 11.34 35 10.68 35 10 C26.75 10 18.5 10 10 10 C9.67 10.66 9.34 11.32 9 12 C9 9.36 9 6.72 9 4 C8.34 4 7.68 4 7 4 C7 3.01 7 2.02 7 1 C5.35 1 3.7 1 2 1 C1.34 3.97 0.68 6.94 0 10 C-0.66 10 -1.32 10 -2 10 C-1.54177532 6.53058454 -1.10868317 3.32604951 0 0 Z " fill="#F8F9F9" transform="translate(90,98)"/>
<path d="M0 0 C1.92440268 3.84880537 2.16719006 5.62643967 1.97265625 9.8046875 C1.93343669 12.06742752 1.93343669 12.06742752 2.50233459 14.50765991 C3.15110208 19.06035068 3.06895631 23.4821185 2.98999023 28.07275391 C2.9771701 29.07182266 2.96434998 30.07089142 2.95114136 31.10023499 C2.92285447 33.26262097 2.8921883 35.42497687 2.85940361 37.58729935 C2.80812049 41.00813095 2.76432233 44.42898344 2.72267151 47.84994507 C2.60311419 57.57394557 2.47142357 67.29775925 2.33129883 77.02148438 C2.24604035 82.97402634 2.1706575 88.92662727 2.10136604 94.87937546 C2.0729068 97.14806628 2.04056696 99.41671183 2.00430107 101.68529129 C1.95382701 104.85216437 1.91582399 108.01896091 1.88061523 111.18603516 C1.8625029 112.12535385 1.84439056 113.06467255 1.82572937 114.03245544 C1.81861938 114.89594101 1.8115094 115.75942657 1.80418396 116.64907837 C1.79366721 117.3971557 1.78315046 118.14523304 1.77231503 118.91597939 C2.03817961 121.34946136 2.71171013 122.92698629 4 125 C4.66 125.33 5.32 125.66 6 126 C4.90809958 128.18380083 3.8590123 129.42698959 2 131 C1.01 131 0.02 131 -1 131 C-1 130.34 -1 129.68 -1 129 C-3.62538284 129.14053872 -6.25017427 129.28718947 -8.875 129.4375 C-9.62136719 129.47681641 -10.36773437 129.51613281 -11.13671875 129.55664062 C-15.19986864 129.71573624 -15.19986864 129.71573624 -19 131 C-19.33 137.27 -19.66 143.54 -20 150 C-20.66 150 -21.32 150 -22 150 C-22 142.74 -22 135.48 -22 128 C-14.74 128 -7.48 128 0 128 C0 85.76 0 43.52 0 0 Z " fill="#271D1E" transform="translate(401,172)"/>
<path d="M0 0 C0.66 0 1.32 0 2 0 C2.33 0.66 2.66 1.32 3 2 C9.93 2.33 16.86 2.66 24 3 C24 4.32 24 5.64 24 7 C24.99 7 25.98 7 27 7 C27.06058594 7.85464844 27.12117188 8.70929688 27.18359375 9.58984375 C27.30927734 11.24693359 27.30927734 11.24693359 27.4375 12.9375 C27.51871094 14.03964844 27.59992188 15.14179688 27.68359375 16.27734375 C27.70418084 18.91109903 27.70418084 18.91109903 29 20 C29.14115161 22.67058851 29.04247107 25.32432238 29 28 C26.1875 28.25 26.1875 28.25 23 28 C21.0625 26.1875 21.0625 26.1875 20 24 C20.33 23.01 20.66 22.02 21 21 C19.68 21 18.36 21 17 21 C17 20.01 17 19.02 17 18 C15.88625 18.020625 14.7725 18.04125 13.625 18.0625 C10 18 10 18 8 17 C8 18.98 8 20.96 8 23 C5.69 23 3.38 23 1 23 C0.67 22.01 0.34 21.02 0 20 C-0.66 19.67 -1.32 19.34 -2 19 C-0.68 19 0.64 19 2 19 C2 19.99 2 20.98 2 22 C3.32 22 4.64 22 6 22 C6 20.02 6 18.04 6 16 C7.98 15.67 9.96 15.34 12 15 C12 15.66 12 16.32 12 17 C13.98 17 15.96 17 18 17 C18 16.01 18 15.02 18 14 C19.32 13.67 20.64 13.34 22 13 C21.67 10.36 21.34 7.72 21 5 C19.10314453 5.03480469 19.10314453 5.03480469 17.16796875 5.0703125 C15.5078184 5.08907126 13.84766167 5.10727135 12.1875 5.125 C11.35412109 5.14175781 10.52074219 5.15851563 9.66210938 5.17578125 C8.85966797 5.18222656 8.05722656 5.18867188 7.23046875 5.1953125 C6.12288208 5.21102295 6.12288208 5.21102295 4.99291992 5.22705078 C3 5 3 5 0 3 C0 2.01 0 1.02 0 0 Z " fill="#66C6E0" transform="translate(252,234)"/>
<path d="M0 0 C9.24 0 18.48 0 28 0 C28.495 2.475 28.495 2.475 29 5 C20.09 5 11.18 5 2 5 C2 5.66 2 6.32 2 7 C1.01 7.66 0.02 8.32 -1 9 C-1.73343428 12.06556598 -1.73343428 12.06556598 -2 15 C-5.3 15 -8.6 15 -12 15 C-11.1875 11.5625 -11.1875 11.5625 -10 8 C-9.01 7.67 -8.02 7.34 -7 7 C-7 6.34 -7 5.68 -7 5 C-6.34 5 -5.68 5 -5 5 C-5 4.01 -5 3.02 -5 2 C-3.35 2 -1.7 2 0 2 C0 1.34 0 0.68 0 0 Z " fill="#6FB9CB" transform="translate(252,204)"/>
<path d="M0 0 C13.86 0 27.72 0 42 0 C42 6.6 42 13.2 42 20 C41.67 20 41.34 20 41 20 C41 13.73 41 7.46 41 1 C35.60635917 1.11963243 30.21295335 1.24216128 24.81958008 1.37231445 C22.98335753 1.4157282 21.14709292 1.45739839 19.31079102 1.49731445 C16.67711689 1.55486169 14.04365579 1.61859998 11.41015625 1.68359375 C10.58411392 1.70030624 9.75807159 1.71701874 8.90699768 1.73423767 C5.14523247 1.47807433 5.14523247 1.47807433 2 3 C1.8912193 4.88526056 1.85310855 6.77461679 1.84178162 8.66297913 C1.8319928 9.89282028 1.82220398 11.12266144 1.81211853 12.38977051 C1.80621358 13.76513633 1.80040318 15.14050256 1.79467773 16.51586914 C1.78510455 17.9544249 1.77509481 19.39297781 1.76467896 20.83152771 C1.73756312 24.74868079 1.71658985 28.665846 1.69667697 32.58304143 C1.67485846 36.67236259 1.64744961 40.76164608 1.62062073 44.85093689 C1.57063774 52.59989665 1.52571979 60.34887727 1.48259836 68.09787792 C1.43327379 76.91758884 1.37833799 85.73726198 1.32291877 94.55693638 C1.2090127 112.70459079 1.10293339 130.85227981 1 149 C11.89 149 22.78 149 34 149 C34 149.33 34 149.66 34 150 C22.78 150 11.56 150 0 150 C0 100.5 0 51 0 0 Z " fill="#CEAA85" transform="translate(78,171)"/>
<path d="M0 0 C13.86 0 27.72 0 42 0 C41.67 0.66 41.34 1.32 41 2 C21.2 1.505 21.2 1.505 1 1 C1.01571045 4.89731934 1.0314209 8.79463867 1.04760742 12.81005859 C1.09722192 25.65831958 1.13056891 38.50657903 1.15543652 51.3549099 C1.17092024 59.14811451 1.19203834 66.94122853 1.22631836 74.734375 C1.25617484 81.52510786 1.27556405 88.31577512 1.28226548 95.10657179 C1.28618416 98.70388572 1.29542441 102.30101194 1.31719017 105.89826584 C1.34126388 109.90931352 1.34197243 113.92003272 1.34057617 117.93115234 C1.351362 119.13020706 1.36214783 120.32926178 1.3732605 121.56465149 C1.36913651 122.65282669 1.36501251 123.74100189 1.36076355 124.8621521 C1.36352893 125.81159887 1.36629431 126.76104565 1.36914349 127.73926353 C1.18641746 128.85832808 1.18641746 128.85832808 1 130 C0.01 130.66 -0.98 131.32 -2 132 C-2.66 131.67 -3.32 131.34 -4 131 C-5.87844908 130.88017743 -7.76100831 130.82270839 -9.64306641 130.79467773 C-10.82413971 130.77473251 -12.00521301 130.75478729 -13.22207642 130.73423767 C-14.50230682 130.71752518 -15.78253723 130.70081268 -17.1015625 130.68359375 C-18.40829926 130.66281265 -19.71503601 130.64203156 -21.06137085 130.62062073 C-24.536689 130.56540706 -28.01206653 130.51599475 -31.48748779 130.46777344 C-35.033379 130.41755323 -38.5791839 130.36186988 -42.125 130.30664062 C-49.0832585 130.19906772 -56.04159496 130.09762083 -63 130 C-63 129.67 -63 129.34 -63 129 C-42.21 129 -21.42 129 0 129 C0 86.43 0 43.86 0 0 Z " fill="#CDAA86" transform="translate(358,171)"/>
<path d="M0 0 C3.91627663 -0.14522934 7.83186153 -0.23404757 11.75 -0.3125 C13.41675781 -0.3753418 13.41675781 -0.3753418 15.1171875 -0.43945312 C23.27235401 -0.5622719 23.27235401 -0.5622719 26.75 2.125 C28.19293209 5.4437438 28.40848923 7.70687012 28.25 11.3125 C28.21390625 12.38113281 28.1778125 13.44976562 28.140625 14.55078125 C28.09421875 15.35902344 28.0478125 16.16726562 28 17 C27.34 17 26.68 17 26 17 C25.690625 17.639375 25.38125 18.27875 25.0625 18.9375 C24 21 24 21 23 22 C19.25913409 22.33628631 15.50403261 22.32506728 11.75 22.375 C10.17412109 22.43107422 10.17412109 22.43107422 8.56640625 22.48828125 C0.86992432 22.57607382 0.86992432 22.57607382 -3.21484375 19.87109375 C-5.3235056 16.47970106 -5.52990614 14.6442918 -5.3125 10.6875 C-5.26738281 9.61886719 -5.22226563 8.55023438 -5.17578125 7.44921875 C-5.11777344 6.64097656 -5.05976562 5.83273438 -5 5 C-4.34 5 -3.68 5 -3 5 C-3 8.96 -3 12.92 -3 17 C-2.01 17 -1.02 17 0 17 C0 17.66 0 18.32 0 19 C7.59 19 15.18 19 23 19 C23 18.34 23 17.68 23 17 C23.66 17 24.32 17 25 17 C24.88610125 15.20759337 24.75852313 13.41605165 24.625 11.625 C24.55539063 10.62726563 24.48578125 9.62953125 24.4140625 8.6015625 C24.23636036 5.84491121 24.23636036 5.84491121 22 4 C19.6754661 3.62948007 19.6754661 3.62948007 16.9921875 3.5859375 C16.00605469 3.54726562 15.01992187 3.50859375 14.00390625 3.46875 C12.97136719 3.4378125 11.93882813 3.406875 10.875 3.375 C9.83472656 3.33632812 8.79445313 3.29765625 7.72265625 3.2578125 C5.14861689 3.16335234 2.57458845 3.07778786 0 3 C0 2.01 0 1.02 0 0 Z " fill="#85756F" transform="translate(101,108)"/>
<path d="M0 0 C1.32 0 2.64 0 4 0 C4 5.61 4 11.22 4 17 C6.31 17.66 8.62 18.32 11 19 C11.33 18.01 11.66 17.02 12 16 C15.63 16 19.26 16 23 16 C23.33 16.99 23.66 17.98 24 19 C25.65 19 27.3 19 29 19 C29 19.66 29 20.32 29 21 C30.32 21 31.64 21 33 21 C33 23.31 33 25.62 33 28 C32.34 28 31.68 28 31 28 C31 26.68 31 25.36 31 24 C30.01 24 29.02 24 28 24 C28 23.01 28 22.02 28 21 C18.76 21 9.52 21 0 21 C0 20.34 0 19.68 0 19 C-0.66 19 -1.32 19 -2 19 C-2.05394705 16.39555652 -2.09364469 13.79223002 -2.125 11.1875 C-2.14175781 10.44951172 -2.15851563 9.71152344 -2.17578125 8.95117188 C-2.21074628 5.08753574 -2.19397555 3.29096332 0 0 Z " fill="#AA6F5D" transform="translate(255,212)"/>
<path d="M0 0 C0.33 0.99 0.66 1.98 1 3 C7.93 3 14.86 3 22 3 C22 4.32 22 5.64 22 7 C20.35 7 18.7 7 17 7 C17 6.01 17 5.02 17 4 C12.38 4 7.76 4 3 4 C3 4.99 3 5.98 3 7 C5.97 7 8.94 7 12 7 C12 9.31 12 11.62 12 14 C11.34 14 10.68 14 10 14 C10 12.35 10 10.7 10 9 C8.35 9 6.7 9 5 9 C5 10.98 5 12.96 5 15 C6.65 15 8.3 15 10 15 C10 15.99 10 16.98 10 18 C14.62 18 19.24 18 24 18 C24 18.33 24 18.66 24 19 C16.41 19 8.82 19 1 19 C1 18.34 1 17.68 1 17 C0.01 17 -0.98 17 -2 17 C-2 13.04 -2 9.08 -2 5 C-2.66 5 -3.32 5 -4 5 C-4 8.96 -4 12.92 -4 17 C-4.33 17 -4.66 17 -5 17 C-5 12.71 -5 8.42 -5 4 C-4.34 4 -3.68 4 -3 4 C-3 3.34 -3 2.68 -3 2 C-2.01 2 -1.02 2 0 2 C0 1.34 0 0.68 0 0 Z " fill="#E8C59E" transform="translate(100,108)"/>
<path d="M0 0 C0.33 0 0.66 0 1 0 C1 35.31 1 70.62 1 107 C-20.12 107 -41.24 107 -63 107 C-63 99.74 -63 92.48 -63 85 C-62.67 85 -62.34 85 -62 85 C-62 91.93 -62 98.86 -62 106 C-54.48931885 105.93710113 -46.9789629 105.86170836 -39.46865368 105.76428509 C-35.9813232 105.71954792 -32.49411043 105.68029968 -29.0065918 105.65356445 C-24.99758213 105.62259149 -20.98920633 105.56780184 -16.98046875 105.51171875 C-15.10067574 105.50213387 -15.10067574 105.50213387 -13.1829071 105.49235535 C-12.02193008 105.47256119 -10.86095306 105.45276703 -9.66479492 105.43237305 C-8.64109299 105.42126999 -7.61739105 105.41016693 -6.56266785 105.39872742 C-3.54461961 104.92914702 -2.85407363 104.36338132 -1 102 C-0.54445364 99.99969876 -0.54445364 99.99969876 -0.60127258 97.766922 C-0.58873444 96.90455429 -0.57619629 96.04218658 -0.5632782 95.15368652 C-0.56471329 94.21069702 -0.56614838 93.26770752 -0.56762695 92.29614258 C-0.5574353 91.3008403 -0.54724365 90.30553802 -0.53674316 89.28007507 C-0.50650915 85.98483731 -0.49733122 82.68988974 -0.48828125 79.39453125 C-0.47144231 77.11194383 -0.45329314 74.82936572 -0.43388367 72.54679871 C-0.38629251 66.53478914 -0.35654205 60.52281733 -0.33044434 54.51068115 C-0.30068482 48.37748758 -0.2541387 42.24442426 -0.20898438 36.11132812 C-0.12284751 24.07428676 -0.0555484 12.03721866 0 0 Z " fill="#2D2324" transform="translate(356,193)"/>
<path d="M0 0 C2.0625 0.4375 2.0625 0.4375 4 1 C3.01 1 2.02 1 1 1 C1.99 3.97 2.98 6.94 4 10 C5.32 10 6.64 10 8 10 C8 11.65 8 13.3 8 15 C7.01 15 6.02 15 5 15 C5 17.31 5 19.62 5 22 C4.01 22 3.02 22 2 22 C2 22.99 2 23.98 2 25 C0.02 25 -1.96 25 -4 25 C-4.38218767 23.34385343 -4.71395102 21.67542976 -5 20 C-4.67 19.67 -4.34 19.34 -4 19 C-8.95 18.67 -13.9 18.34 -19 18 C-19.33 19.32 -19.66 20.64 -20 22 C-20.042721 20.33388095 -20.04063832 18.66617115 -20 17 C-19 16 -19 16 -17.05053711 15.88647461 C-16.2178833 15.89171143 -15.38522949 15.89694824 -14.52734375 15.90234375 C-13.62822266 15.90556641 -12.72910156 15.90878906 -11.80273438 15.91210938 C-10.85720703 15.92048828 -9.91167969 15.92886719 -8.9375 15.9375 C-7.98810547 15.94201172 -7.03871094 15.94652344 -6.06054688 15.95117188 C-3.70696935 15.9629989 -1.35351523 15.97947975 1 16 C0.42449583 9.43579577 0.42449583 9.43579577 -0.625 2.9375 C-0.74875 2.298125 -0.8725 1.65875 -1 1 C-0.67 0.67 -0.34 0.34 0 0 Z " fill="#B27895" transform="translate(122,134)"/>
<path d="M0 0 C8.25 0 16.5 0 25 0 C25 1.32 25 2.64 25 4 C18.4 4.33 11.8 4.66 5 5 C4.67 6.65 4.34 8.3 4 10 C3.34 10 2.68 10 2 10 C1.5978125 11.2065625 1.5978125 11.2065625 1.1875 12.4375 C0.5996875 13.7059375 0.5996875 13.7059375 0 15 C-0.99 15.33 -1.98 15.66 -3 16 C-3.0828413 14.64692538 -3.14000368 13.29227589 -3.1875 11.9375 C-3.22230469 11.18339844 -3.25710937 10.42929688 -3.29296875 9.65234375 C-3 7 -3 7 0 0 Z " fill="#F4CFE1" transform="translate(98,146)"/>
<path d="M0 0 C0.33 0.99 0.66 1.98 1 3 C2.32 3 3.64 3 5 3 C5 5.31 5 7.62 5 10 C5.99 10 6.98 10 8 10 C8.32613281 10.80824219 8.65226562 11.61648437 8.98828125 12.44921875 C10.71414213 15.19149488 10.71414213 15.19149488 13.29833984 15.50634766 C16.26869118 15.71870013 19.20963533 15.79563355 22.1875 15.8125 C23.22326172 15.83763672 24.25902344 15.86277344 25.32617188 15.88867188 C27.88449579 15.94761943 30.44110605 15.98384257 33 16 C33 16.99 33 17.98 33 19 C25.41 19 17.82 19 10 19 C9.67 18.01 9.34 17.02 9 16 C6.36 16 3.72 16 1 16 C-0.50156874 12.99686252 -0.09281204 10.20932478 -0.0625 6.875 C-0.05347656 5.59367187 -0.04445313 4.31234375 -0.03515625 2.9921875 C-0.02355469 2.00476563 -0.01195313 1.01734375 0 0 Z " fill="#FBF8FC" transform="translate(89,115)"/>
<path d="M0 0 C14.19 0 28.38 0 43 0 C43 6.93 43 13.86 43 21 C42.67 21 42.34 21 42 21 C41.82715323 19.52154276 41.6621554 18.04216801 41.5 16.5625 C41.4071875 15.73878906 41.314375 14.91507812 41.21875 14.06640625 C40.93250089 10.05380714 41 6.02279631 41 2 C27.8 2 14.6 2 1 2 C1 8.27 1 14.54 1 21 C7.6 21 14.2 21 21 21 C21 21.33 21 21.66 21 22 C14.07 22 7.14 22 0 22 C0 14.74 0 7.48 0 0 Z " fill="#BB9B79" transform="translate(250,278)"/>
<path d="M0 0 C0.33 0.66 0.66 1.32 1 2 C2.32 2 3.64 2 5 2 C3.6302836 5.99500618 1.74277578 8.80009492 -1 12 C2.63 12 6.26 12 10 12 C10 12.99 10 13.98 10 15 C9.01 15 8.02 15 7 15 C7.33 17.64 7.66 20.28 8 23 C8.66 23 9.32 23 10 23 C10.33 23.66 10.66 24.32 11 25 C14.02934491 25.65772428 14.02934491 25.65772428 17 26 C17 26.33 17 26.66 17 27 C14.69 27 12.38 27 10 27 C9.67 26.01 9.34 25.02 9 24 C6.49552484 22.78130071 6.49552484 22.78130071 4 22 C4 19.36 4 16.72 4 14 C2.02 14 0.04 14 -2 14 C-2 12.68 -2 11.36 -2 10 C-2.99 9.67 -3.98 9.34 -5 9 C-5 6.69 -5 4.38 -5 2 C-3.35 2 -1.7 2 0 2 C0 1.34 0 0.68 0 0 Z " fill="#27556F" transform="translate(242,231)"/>
<path d="M0 0 C4.95 0 9.9 0 15 0 C15 14.19 15 28.38 15 43 C29.52 43 44.04 43 59 43 C58.505 43.99 58.505 43.99 58 45 C42.82 44.67 27.64 44.34 12 44 C12.33 42.68 12.66 41.36 13 40 C13.08378506 37.09040622 13.11617895 34.20578759 13.09765625 31.296875 C13.0962413 30.45908508 13.09482635 29.62129517 13.09336853 28.75811768 C13.08778197 26.08870843 13.07523194 23.4193838 13.0625 20.75 C13.05748326 18.93750121 13.05292066 17.12500111 13.04882812 15.3125 C13.03781694 10.87496752 13.02056155 6.43749809 13 2 C12.09507812 2.03480469 12.09507812 2.03480469 11.171875 2.0703125 C9.97304687 2.09738281 9.97304687 2.09738281 8.75 2.125 C7.96109375 2.14820313 7.1721875 2.17140625 6.359375 2.1953125 C4 2 4 2 0 0 Z " fill="#281C1A" transform="translate(170,279)"/>
<path d="M0 0 C9.63715246 -0.85705901 9.63715246 -0.85705901 13.625 1.875 C16.93031757 6.22410207 16.55340094 9.72219472 16 15 C13.625 14.8125 13.625 14.8125 11 14 C9.6875 11.4375 9.6875 11.4375 9 9 C8.34 9 7.68 9 7 9 C7 8.01 7 7.02 7 6 C6.01 6 5.02 6 4 6 C1.8125 4.125 1.8125 4.125 0 2 C0 1.34 0 0.68 0 0 Z " fill="#D7B282" transform="translate(269,213)"/>
<path d="M0 0 C3.05070757 -0.2878026 5.95999538 -0.44198649 9 0 C11.52623559 2.83244597 12 4.21564776 12 8 C11.34 8 10.68 8 10 8 C9.34 9.32 8.68 10.64 8 12 C7.34 11.67 6.68 11.34 6 11 C6.33 12.32 6.66 13.64 7 15 C9.31 15.33 11.62 15.66 14 16 C14 17.32 14 18.64 14 20 C13.34 20 12.68 20 12 20 C12 19.01 12 18.02 12 17 C8.37 17 4.74 17 1 17 C2.78260827 13.43478346 4.75992289 10.28544643 7 7 C5.68 7 4.36 7 3 7 C3 6.34 3 5.68 3 5 C2.01 5 1.02 5 0 5 C0 3.35 0 1.7 0 0 Z " fill="#59B4D1" transform="translate(240,226)"/>
<path d="M0 0 C14.52 0 29.04 0 44 0 C44.66 1.65 45.32 3.3 46 5 C46.66 5 47.32 5 48 5 C48 5.66 48 6.32 48 7 C47.34 7 46.68 7 46 7 C45.67 7.66 45.34 8.32 45 9 C44.505 6.525 44.505 6.525 44 4 C29.48 4 14.96 4 0 4 C-0.33 5.65 -0.66 7.3 -1 9 C-1.33 9 -1.66 9 -2 9 C-2 6.69 -2 4.38 -2 2 C-1.34 2 -0.68 2 0 2 C0 1.34 0 0.68 0 0 Z " fill="#3F3030" transform="translate(77,168)"/>
<path d="M0 0 C2.64 0 5.28 0 8 0 C8 0.99 8 1.98 8 3 C8.99 3 9.98 3 11 3 C11 4.32 11 5.64 11 7 C18.92 6.505 18.92 6.505 27 6 C27 4.68 27 3.36 27 2 C27.99 1.67 28.98 1.34 30 1 C30 1.66 30 2.32 30 3 C29.34 3 28.68 3 28 3 C28 3.66 28 4.32 28 5 C28.66 5 29.32 5 30 5 C30 5.99 30 6.98 30 8 C31.32 8.66 32.64 9.32 34 10 C26.08 10 18.16 10 10 10 C9.67 10.66 9.34 11.32 9 12 C9 9.36 9 6.72 9 4 C8.34 4 7.68 4 7 4 C7 3.01 7 2.02 7 1 C5.35 1 3.7 1 2 1 C1.34 3.97 0.68 6.94 0 10 C-0.66 10 -1.32 10 -2 10 C-1.54177532 6.53058454 -1.10868317 3.32604951 0 0 Z " fill="#B2B2BA" transform="translate(90,98)"/>
<path d="M0 0 C0 3.63 0 7.26 0 11 C-0.33 11 -0.66 11 -1 11 C-1 8.36 -1 5.72 -1 3 C-15.52 3.33 -30.04 3.66 -45 4 C-45.66 5.32 -46.32 6.64 -47 8 C-47.04254356 6.00045254 -47.04080783 3.99958364 -47 2 C-44.89286706 -0.10713294 -40.28003762 0.7408771 -37.36328125 0.68359375 C-36.05498604 0.6524221 -36.05498604 0.6524221 -34.72026062 0.62062073 C-31.91775686 0.5550359 -29.11515384 0.49628351 -26.3125 0.4375 C-24.44074526 0.39430939 -22.56900024 0.35069493 -20.69726562 0.30664062 C-6.10120776 -0.02894486 -6.10120776 -0.02894486 0 0 Z " fill="#40322F" transform="translate(230,168)"/>
<path d="M0 0 C0.66 0 1.32 0 2 0 C2 3.96 2 7.92 2 12 C2.99 12 3.98 12 5 12 C5 12.66 5 13.32 5 14 C12.59 14 20.18 14 28 14 C28 14.99 28 15.98 28 17 C24.27124612 17.14560195 20.54322566 17.23417043 16.8125 17.3125 C15.75740234 17.35439453 14.70230469 17.39628906 13.61523438 17.43945312 C5.85113632 17.56191524 5.85113632 17.56191524 1.78125 14.875 C-0.32116199 11.48163329 -0.52983078 9.64292012 -0.3125 5.6875 C-0.26738281 4.61886719 -0.22226563 3.55023438 -0.17578125 2.44921875 C-0.11777344 1.64097656 -0.05976562 0.83273438 0 0 Z " fill="#625956" transform="translate(96,113)"/>
<path d="M0 0 C4.62 0 9.24 0 14 0 C14 0.99 14 1.98 14 3 C13.01 3.495 13.01 3.495 12 4 C11.53248212 6.35599235 11.53248212 6.35599235 11.375 9.0625 C11.30023438 9.98160156 11.22546875 10.90070313 11.1484375 11.84765625 C11.09945312 12.55792969 11.05046875 13.26820312 11 14 C9.68 14 8.36 14 7 14 C7 13.01 7 12.02 7 11 C5.35 11 3.7 11 2 11 C2 9.02 2 7.04 2 5 C3.65 5 5.3 5 7 5 C7 6.65 7 8.3 7 10 C7.66 10 8.32 10 9 10 C9 7.69 9 5.38 9 3 C6.03 3 3.06 3 0 3 C0 2.01 0 1.02 0 0 Z " fill="#F9CE9C" transform="translate(103,112)"/>
<path d="M0 0 C0.66 0.33 1.32 0.66 2 1 C2.33 1.99 2.66 2.98 3 4 C3.66 4.33 4.32 4.66 5 5 C3.90809958 7.18380083 2.8590123 8.42698959 1 10 C0.01 10 -0.98 10 -2 10 C-2 9.34 -2 8.68 -2 8 C-4.62538284 8.14053872 -7.25017427 8.28718947 -9.875 8.4375 C-10.99455078 8.49647461 -10.99455078 8.49647461 -12.13671875 8.55664062 C-16.19986864 8.71573624 -16.19986864 8.71573624 -20 10 C-20.33 16.27 -20.66 22.54 -21 29 C-21.66 29 -22.32 29 -23 29 C-23 21.74 -23 14.48 -23 7 C-15.74 7 -8.48 7 -1 7 C-0.67 4.69 -0.34 2.38 0 0 Z " fill="#2F2424" transform="translate(402,293)"/>
<path d="M0 0 C0.33 0 0.66 0 1 0 C1.33 5.94 1.66 11.88 2 18 C3.42054688 17.98839844 4.84109375 17.97679687 6.3046875 17.96484375 C8.16145702 17.95546613 10.01822796 17.9463659 11.875 17.9375 C12.81214844 17.92912109 13.74929687 17.92074219 14.71484375 17.91210938 C16.05869141 17.90727539 16.05869141 17.90727539 17.4296875 17.90234375 C18.67081299 17.89448853 18.67081299 17.89448853 19.93701172 17.88647461 C22 18 22 18 24 19 C23.84660156 20.29679687 23.69320312 21.59359375 23.53515625 22.9296875 C22.76399998 30.64125017 22.64138018 38.3825462 22.4375 46.125 C22.39420698 47.66928003 22.35058967 49.213551 22.30664062 50.7578125 C22.20069059 54.50511139 22.0991213 58.25251353 22 62 C21.67 62 21.34 62 21 62 C21 47.81 21 33.62 21 19 C14.07 19 7.14 19 0 19 C0 12.73 0 6.46 0 0 Z " fill="#BFA182" transform="translate(164,259)"/>
<path d="M0 0 C7.59 0 15.18 0 23 0 C22.34 1.32 21.68 2.64 21 4 C19.35 4 17.7 4 16 4 C16 4.66 16 5.32 16 6 C15.34 6 14.68 6 14 6 C13.67 6.66 13.34 7.32 13 8 C12.505 7.566875 12.01 7.13375 11.5 6.6875 C8.67081856 4.77780253 5.93238917 3.80525581 2.70703125 2.74609375 C1 2 1 2 0 0 Z " fill="#E679BC" transform="translate(98,135)"/>
<path d="M0 0 C0.33 0.99 0.66 1.98 1 3 C3.01508358 3.73323796 3.01508358 3.73323796 5 4 C5.33 3.01 5.66 2.02 6 1 C6.66 1.33 7.32 1.66 8 2 C8.25080906 6.51456311 8.25080906 6.51456311 7.03125 8.875 C5.87907148 11.24918604 5.60603655 13.13158573 5.375 15.75 C5.26285156 16.94882813 5.26285156 16.94882813 5.1484375 18.171875 C5.09945312 18.77515625 5.05046875 19.3784375 5 20 C7.87420123 17.28395285 7.87420123 17.28395285 10 14 C10.66 14.33 11.32 14.66 12 15 C11.6875 16.875 11.6875 16.875 11 19 C8 21 8 21 3 21 C3 17.37 3 13.74 3 10 C1.35 9.67 -0.3 9.34 -2 9 C-2 8.34 -2 7.68 -2 7 C-0.35 7 1.3 7 3 7 C3 6.34 3 5.68 3 5 C1.35 4.67 -0.3 4.34 -2 4 C-1.34 2.68 -0.68 1.36 0 0 Z " fill="#A76A8B" transform="translate(90,142)"/>
<path d="M0 0 C0.33 0 0.66 0 1 0 C1 7.26 1 14.52 1 22 C-0.65 22.66 -2.3 23.32 -4 24 C-4 24.66 -4 25.32 -4 26 C-5.65 26 -7.3 26 -9 26 C-9 25.01 -9 24.02 -9 23 C-16.26 23 -23.52 23 -31 23 C-31 22.01 -31 21.02 -31 20 C-30.67 20.33 -30.34 20.66 -30 21 C-26.21649045 21.30758516 -22.41947812 21.278377 -18.625 21.3125 C-17.02398437 21.35600586 -17.02398437 21.35600586 -15.390625 21.40039062 C-13.85535156 21.41295898 -13.85535156 21.41295898 -12.2890625 21.42578125 C-10.87681396 21.44765503 -10.87681396 21.44765503 -9.43603516 21.4699707 C-6.83024656 21.22062652 -6.83024656 21.22062652 -5.16943359 18.97338867 C-4.78352051 18.32217041 -4.39760742 17.67095215 -4 17 C-3.34 17.33 -2.68 17.66 -2 18 C-2.33 18.66 -2.66 19.32 -3 20 C-2.01 20.33 -1.02 20.66 0 21 C0 14.07 0 7.14 0 0 Z " fill="#BEB8BF" transform="translate(131,108)"/>
<path d="M0 0 C1.5 1.125 1.5 1.125 3 3 C3 4.98 3 6.96 3 9 C-4.92 9 -12.84 9 -21 9 C-21 8.67 -21 8.34 -21 8 C-16.38 8 -11.76 8 -7 8 C-6.67 6.02 -6.34 4.04 -6 2 C-4.02 1.34 -2.04 0.68 0 0 Z " fill="#F39CC1" transform="translate(120,137)"/>
<path d="M0 0 C0.33 0.99 0.66 1.98 1 3 C7.93 3 14.86 3 22 3 C22 4.32 22 5.64 22 7 C20.35 7 18.7 7 17 7 C17 6.01 17 5.02 17 4 C11.06 4.33 5.12 4.66 -1 5 C-0.67 8.96 -0.34 12.92 0 17 C-0.66 17 -1.32 17 -2 17 C-2 13.04 -2 9.08 -2 5 C-2.66 5 -3.32 5 -4 5 C-4 8.96 -4 12.92 -4 17 C-4.33 17 -4.66 17 -5 17 C-5 12.71 -5 8.42 -5 4 C-4.34 4 -3.68 4 -3 4 C-3 3.34 -3 2.68 -3 2 C-2.01 2 -1.02 2 0 2 C0 1.34 0 0.68 0 0 Z " fill="#CCB094" transform="translate(100,108)"/>
<path d="M0 0 C3.63 0 7.26 0 11 0 C11 3.11257569 10.82638376 5.10765685 10 8 C7.36 8 4.72 8 2 8 C2.33 6.68 2.66 5.36 3 4 C1.68 3.67 0.36 3.34 -1 3 C-0.67 2.01 -0.34 1.02 0 0 Z " fill="#AAECF9" transform="translate(262,238)"/>
<path d="M0 0 C1.65 0 3.3 0 5 0 C5 0.99 5 1.98 5 3 C5.66 3 6.32 3 7 3 C7 5.64 7 8.28 7 11 C6.34 11 5.68 11 5 11 C4.67 11.66 4.34 12.32 4 13 C4 11.68 4 10.36 4 9 C2.35 8.67 0.7 8.34 -1 8 C-1.125 2.25 -1.125 2.25 0 0 Z " fill="#F9FAFC" transform="translate(92,99)"/>
<path d="M0 0 C0.66 0 1.32 0 2 0 C2 1.65 2 3.3 2 5 C2.66 5.33 3.32 5.66 4 6 C4.40729228 8.32156597 4.74438677 10.6568787 5 13 C4.01 12.01 3.02 11.02 2 10 C2.33 9.01 2.66 8.02 3 7 C1.68 7 0.36 7 -1 7 C-1 6.01 -1 5.02 -1 4 C-2.11375 4.020625 -3.2275 4.04125 -4.375 4.0625 C-8 4 -8 4 -10 3 C-10 4.98 -10 6.96 -10 9 C-12.31 9 -14.62 9 -17 9 C-17.33 8.01 -17.66 7.02 -18 6 C-18.66 5.67 -19.32 5.34 -20 5 C-18.68 5 -17.36 5 -16 5 C-16 5.99 -16 6.98 -16 8 C-14.68 8 -13.36 8 -12 8 C-12 6.02 -12 4.04 -12 2 C-10.02 1.67 -8.04 1.34 -6 1 C-6 1.66 -6 2.32 -6 3 C-4.02 3 -2.04 3 0 3 C0 2.01 0 1.02 0 0 Z " fill="#54A9C2" transform="translate(270,248)"/>
<path d="M0 0 C4.45827926 -0.0578304 8.9164628 -0.09353855 13.375 -0.125 C15.28152344 -0.15013672 15.28152344 -0.15013672 17.2265625 -0.17578125 C18.43828125 -0.18222656 19.65 -0.18867188 20.8984375 -0.1953125 C22.01911621 -0.20578613 23.13979492 -0.21625977 24.29443359 -0.22705078 C27 0 27 0 29 2 C29.66 1.34 30.32 0.68 31 0 C31 1.32 31 2.64 31 4 C31.66 4.33 32.32 4.66 33 5 C32.34 5 31.68 5 31 5 C31 5.66 31 6.32 31 7 C29.35 7 27.7 7 26 7 C26 5.68 26 4.36 26 3 C24.35 3.66 22.7 4.32 21 5 C21 3.68 21 2.36 21 1 C14.07 1 7.14 1 0 1 C0 0.67 0 0.34 0 0 Z " fill="#3C8CAC" transform="translate(255,236)"/>
<path d="M0 0 C0.33 0.66 0.66 1.32 1 2 C2.32 2 3.64 2 5 2 C3.6062718 6.43458973 1.39417765 8.87378374 -2 12 C-2 11.34 -2 10.68 -2 10 C-2.99 9.67 -3.98 9.34 -5 9 C-5 6.69 -5 4.38 -5 2 C-3.35 2 -1.7 2 0 2 C0 1.34 0 0.68 0 0 Z " fill="#546268" transform="translate(242,231)"/>
<path d="M0 0 C2.97 0.495 2.97 0.495 6 1 C5.67 2.98 5.34 4.96 5 7 C4.34 7 3.68 7 3 7 C2.5978125 8.2065625 2.5978125 8.2065625 2.1875 9.4375 C1.5996875 10.7059375 1.5996875 10.7059375 1 12 C0.01 12.33 -0.98 12.66 -2 13 C-2.05447047 11.58376784 -2.09300508 10.16691809 -2.125 8.75 C-2.14820312 7.96109375 -2.17140625 7.1721875 -2.1953125 6.359375 C-1.9828378 3.79268059 -1.28654105 2.2083933 0 0 Z " fill="#E991BD" transform="translate(97,149)"/>
<path d="M0 0 C8.91 0 17.82 0 27 0 C27 0.99 27 1.98 27 3 C27.66 3 28.32 3 29 3 C28.67 4.32 28.34 5.64 28 7 C27.62383545 6.35256836 27.2476709 5.70513672 26.86010742 5.03808594 C25.14793356 2.76195134 25.14793356 2.76195134 22.36450195 2.45410156 C20.81702271 2.42268066 20.81702271 2.42268066 19.23828125 2.390625 C18.12001953 2.35839844 17.00175781 2.32617188 15.84960938 2.29296875 C14.68236328 2.27878906 13.51511719 2.26460937 12.3125 2.25 C11.13365234 2.22035156 9.95480469 2.19070312 8.74023438 2.16015625 C5.82675368 2.08938344 2.91407664 2.03672275 0 2 C0 1.34 0 0.68 0 0 Z " fill="#3A3037" transform="translate(256,233)"/>
<path d="M0 0 C1.984375 1.17578125 1.984375 1.17578125 4 3 C4.390625 5.48046875 4.390625 5.48046875 4.25 8.1875 C4.21390625 9.08855469 4.1778125 9.98960938 4.140625 10.91796875 C4.07101563 11.94857422 4.07101563 11.94857422 4 13 C3.67 13 3.34 13 3 13 C2.87625 11.865625 2.7525 10.73125 2.625 9.5625 C2.41875 8.386875 2.2125 7.21125 2 6 C1.34 5.67 0.68 5.34 0 5 C0 6.98 0 8.96 0 11 C-1.65 11 -3.3 11 -5 11 C-5 8.69 -5 6.38 -5 4 C-3.35 4 -1.7 4 0 4 C0 2.68 0 1.36 0 0 Z " fill="#F2C4A6" transform="translate(122,111)"/>
<path d="M0 0 C3.93743833 -0.05797565 7.87476719 -0.09358789 11.8125 -0.125 C12.93205078 -0.14175781 14.05160156 -0.15851563 15.20507812 -0.17578125 C16.27822266 -0.18222656 17.35136719 -0.18867188 18.45703125 -0.1953125 C19.9416687 -0.21102295 19.9416687 -0.21102295 21.45629883 -0.22705078 C24 0 24 0 27 2 C27.29296875 5.2578125 27.29296875 5.2578125 27.1875 9.125 C27.16042969 10.40632812 27.13335937 11.68765625 27.10546875 13.0078125 C27.07066406 13.99523437 27.03585937 14.98265625 27 16 C26.67 16 26.34 16 26 16 C26 12.7 26 9.4 26 6 C24.68 5.34 23.36 4.68 22 4 C22 3.34 22 2.68 22 2 C14.74 2 7.48 2 0 2 C0 1.34 0 0.68 0 0 Z " fill="#B49275" transform="translate(259,212)"/>
<path d="M0 0 C0.33 0 0.66 0 1 0 C1.33 1.65 1.66 3.3 2 5 C3.32 5.33 4.64 5.66 6 6 C5.67 11.61 5.34 17.22 5 23 C4.67 23 4.34 23 4 23 C4 20.69 4 18.38 4 16 C2.68 16 1.36 16 0 16 C0.33 15.01 0.66 14.02 1 13 C1.66 13 2.32 13 3 13 C3.33 12.34 3.66 11.68 4 11 C3.01 11 2.02 11 1 11 C-0.20272819 8.59454362 -0.10071472 7.05003047 -0.0625 4.375 C-0.05347656 3.55773437 -0.04445313 2.74046875 -0.03515625 1.8984375 C-0.02355469 1.27195312 -0.01195313 0.64546875 0 0 Z " fill="#E7EAED" transform="translate(90,102)"/>
<path d="M0 0 C1.65 0 3.3 0 5 0 C5.33 1.65 5.66 3.3 6 5 C5.34 5 4.68 5 4 5 C4 5.99 4 6.98 4 8 C2.02 8 0.04 8 -2 8 C-2.33 6.35 -2.66 4.7 -3 3 C-2.01 3 -1.02 3 0 3 C0 2.01 0 1.02 0 0 Z " fill="#D57FAE" transform="translate(120,151)"/>
<path d="M0 0 C2.97 0 5.94 0 9 0 C9 2.31 9 4.62 9 7 C8.34 7 7.68 7 7 7 C7 5.35 7 3.7 7 2 C5.35 2 3.7 2 2 2 C2 3.98 2 5.96 2 8 C3.65 8 5.3 8 7 8 C7 8.66 7 9.32 7 10 C4.625 10.125 4.625 10.125 2 10 C0 8 0 8 -0.1953125 6.0546875 C-0.13020833 4.03645833 -0.06510417 2.01822917 0 0 Z " fill="#CE8656" transform="translate(103,115)"/>
<path d="M0 0 C2.31 0 4.62 0 7 0 C7 0.99 7 1.98 7 3 C8.32 3 9.64 3 11 3 C11.33 4.65 11.66 6.3 12 8 C14.31 8.66 16.62 9.32 19 10 C19 10.33 19 10.66 19 11 C17.5629191 11.05422947 16.12524538 11.09289723 14.6875 11.125 C13.88699219 11.14820313 13.08648437 11.17140625 12.26171875 11.1953125 C10 11 10 11 7 9 C6.3125 5.375 6.3125 5.375 6 2 C3.03 1.505 3.03 1.505 0 1 C0 0.67 0 0.34 0 0 Z " fill="#2A5066" transform="translate(262,252)"/>
<path d="M0 0 C0.99 0.66 1.98 1.32 3 2 C3.29296875 4.8203125 3.29296875 4.8203125 3.1875 8.125 C3.16042969 9.22070312 3.13335937 10.31640625 3.10546875 11.4453125 C3.07066406 12.28835937 3.03585938 13.13140625 3 14 C2.34 14 1.68 14 1 14 C0.34 15.32 -0.32 16.64 -1 18 C-1.33 16.68 -1.66 15.36 -2 14 C-1.34 14 -0.68 14 0 14 C-0.08378906 13.15695313 -0.16757813 12.31390625 -0.25390625 11.4453125 C-0.35574219 10.34960938 -0.45757812 9.25390625 -0.5625 8.125 C-0.66691406 7.03445312 -0.77132812 5.94390625 -0.87890625 4.8203125 C-1 2 -1 2 0 0 Z " fill="#8D827E" transform="translate(126,111)"/>
<path d="M0 0 C1.98 0 3.96 0 6 0 C6.33 0.99 6.66 1.98 7 3 C7.66 3 8.32 3 9 3 C9 5.31 9 7.62 9 10 C8.67 10 8.34 10 8 10 C8 8.02 8 6.04 8 4 C7.34 4 6.68 4 6 4 C6 3.34 6 2.68 6 2 C5.01 2 4.02 2 3 2 C3.66 3.65 4.32 5.3 5 7 C3.35 7.33 1.7 7.66 0 8 C0 7.01 0 6.02 0 5 C-0.66 5 -1.32 5 -2 5 C-2 4.34 -2 3.68 -2 3 C-1.34 3 -0.68 3 0 3 C0 2.01 0 1.02 0 0 Z " fill="#CFD1D6" transform="translate(120,98)"/>
<path d="M0 0 C0.33 0 0.66 0 1 0 C1 2.97 1 5.94 1 9 C0.01 9.33 -0.98 9.66 -2 10 C-2 9.34 -2 8.68 -2 8 C-3.65 8 -5.3 8 -7 8 C-7 6.02 -7 4.04 -7 2 C-5.35 2 -3.7 2 -2 2 C-2 3.65 -2 5.3 -2 7 C-1.34 7 -0.68 7 0 7 C0 4.69 0 2.38 0 0 Z " fill="#F2C1A4" transform="translate(112,115)"/>
<path d="M0 0 C0.66 0 1.32 0 2 0 C2 6.93 2 13.86 2 21 C0.68 20.67 -0.64 20.34 -2 20 C-1.67 19.34 -1.34 18.68 -1 18 C-0.92883618 15.62597499 -0.91590915 13.24999323 -0.9375 10.875 C-0.94652344 9.59367187 -0.95554688 8.31234375 -0.96484375 6.9921875 C-0.97644531 6.00476563 -0.98804688 5.01734375 -1 4 C-0.34 4 0.32 4 1 4 C0.67 2.68 0.34 1.36 0 0 Z " fill="#E1E0E7" transform="translate(129,108)"/>
<path d="M0 0 C3.05094381 -0.28782489 5.96031862 -0.44653726 9 0 C11.125 2.375 11.125 2.375 12 5 C11.67 5.66 11.34 6.32 11 7 C10.608125 6.525625 10.21625 6.05125 9.8125 5.5625 C7.59191626 3.64820367 5.86624291 3.38733012 3 3 C3 3.66 3 4.32 3 5 C2.01 5 1.02 5 0 5 C0 3.35 0 1.7 0 0 Z " fill="#3B92B6" transform="translate(240,226)"/>
<path d="M0 0 C8.58077055 -0.24911914 16.58173087 0.30117812 25 2 C25 2.33 25 2.66 25 3 C21.04 3 17.08 3 13 3 C12.67 3.99 12.34 4.98 12 6 C11.01 5.34 10.02 4.68 9 4 C9 3.01 9 2.02 9 1 C6.03 1 3.06 1 0 1 C0 0.67 0 0.34 0 0 Z " fill="#1C1A28" transform="translate(264,1)"/>
<path d="M0 0 C1.32 0.33 2.64 0.66 4 1 C4.33 2.32 4.66 3.64 5 5 C13.25 5 21.5 5 30 5 C30 5.33 30 5.66 30 6 C21.09 6 12.18 6 3 6 C3 5.34 3 4.68 3 4 C2.34 4 1.68 4 1 4 C0.67 2.68 0.34 1.36 0 0 Z " fill="#33576F" transform="translate(251,230)"/>
<path d="M0 0 C1.32 0 2.64 0 4 0 C4 1.32 4 2.64 4 4 C5.65 4 7.3 4 9 4 C9 4.33 9 4.66 9 5 C7.02 5 5.04 5 3 5 C3 7.64 3 10.28 3 13 C3.66 13 4.32 13 5 13 C5 16.3 5 19.6 5 23 C4.67 23 4.34 23 4 23 C3.77213542 20.94921875 3.54427083 18.8984375 3.31640625 16.84765625 C3.18113386 14.98859771 3.18113386 14.98859771 2 14 C1.7905639 12.02490127 1.63196178 10.04428318 1.5 8.0625 C1.32264916 3.87832585 1.32264916 3.87832585 0 0 Z " fill="#23485E" transform="translate(277,239)"/>
<path d="M0 0 C1.32 0 2.64 0 4 0 C4 0.66 4 1.32 4 2 C3.34 2 2.68 2 2 2 C2.02320313 2.98742187 2.04640625 3.97484375 2.0703125 4.9921875 C2.08835937 6.27351562 2.10640625 7.55484375 2.125 8.875 C2.14820313 10.15117187 2.17140625 11.42734375 2.1953125 12.7421875 C2 16 2 16 0 18 C-0.19430855 15.3753399 -0.38073238 12.75053235 -0.5625 10.125 C-0.61857422 9.37863281 -0.67464844 8.63226563 -0.73242188 7.86328125 C-1.11328125 2.2265625 -1.11328125 2.2265625 0 0 Z " fill="#A15946" transform="translate(255,212)"/>
<path d="M0 0 C0.433125 0.9590625 0.433125 0.9590625 0.875 1.9375 C1.82823451 4.15206079 1.82823451 4.15206079 4 5 C4 4.01 4 3.02 4 2 C5.32 2 6.64 2 8 2 C8 3.65 8 5.3 8 7 C4.7 7 1.4 7 -2 7 C-1.34 4.69 -0.68 2.38 0 0 Z " fill="#57A1BB" transform="translate(242,212)"/>
<path d="M0 0 C0.66 1.32 1.32 2.64 2 4 C3.32 4 4.64 4 6 4 C6 5.65 6 7.3 6 9 C5.01 9 4.02 9 3 9 C3 11.31 3 13.62 3 16 C2.67 16 2.34 16 2 16 C0.13216954 10.51324804 -0.2358396 5.77807024 0 0 Z " fill="#865F73" transform="translate(124,140)"/>
<path d="M0 0 C3.77258731 0.29019902 6.32665983 0.51657629 9.4375 2.75 C11.28286337 5.40732325 11.35205968 6.8314629 11 10 C6.57479891 7.40259936 4.69108572 5.81309013 3 1 C2.01 0.67 1.02 0.34 0 0 Z " fill="#E4BF90" transform="translate(274,213)"/>
<path d="M0 0 C2.05078125 0.03255208 4.1015625 0.06510417 6.15234375 0.09765625 C5.16234375 0.59265625 5.16234375 0.59265625 4.15234375 1.09765625 C4.48234375 2.41765625 4.81234375 3.73765625 5.15234375 5.09765625 C2.48570185 6.4309772 0.98554072 5.76867658 -1.84765625 5.09765625 C-2.41015625 3.16015625 -2.41015625 3.16015625 -2.84765625 1.09765625 C-1.84765625 0.09765625 -1.84765625 0.09765625 0 0 Z " fill="#211E2C" transform="translate(186.84765625,322.90234375)"/>
<path d="M0 0 C3.63 0 7.26 0 11 0 C11.33 0.99 11.66 1.98 12 3 C8.04 3 4.08 3 0 3 C0 2.01 0 1.02 0 0 Z " fill="#927266" transform="translate(238,221)"/>
<path d="M0 0 C0.99 0.66 1.98 1.32 3 2 C3.66 1.34 4.32 0.68 5 0 C5 1.32 5 2.64 5 4 C5.66 4.33 6.32 4.66 7 5 C6.34 5 5.68 5 5 5 C5 5.66 5 6.32 5 7 C3.35 7 1.7 7 0 7 C0 5.68 0 4.36 0 3 C-1.32 2.67 -2.64 2.34 -4 2 C-2.68 2 -1.36 2 0 2 C0 1.34 0 0.68 0 0 Z " fill="#3B6D82" transform="translate(281,236)"/>
<path d="M0 0 C3.63 0 7.26 0 11 0 C11 0.99 11 1.98 11 3 C7.37 3 3.74 3 0 3 C0 2.01 0 1.02 0 0 Z " fill="#A85F4D" transform="translate(267,228)"/>
<path d="M0 0 C0.66 0.33 1.32 0.66 2 1 C1.01 3.64 0.02 6.28 -1 9 C-4.96 9 -8.92 9 -13 9 C-13 7.68 -13 6.36 -13 5 C-12.01 5.495 -12.01 5.495 -11 6 C-11.33 6.66 -11.66 7.32 -12 8 C-8.7 8 -5.4 8 -2 8 C-2.04125 7.05125 -2.0825 6.1025 -2.125 5.125 C-2 2 -2 2 0 0 Z " fill="#2E4C5C" transform="translate(252,211)"/>
<path d="M0 0 C0 3.63 0 7.26 0 11 C-0.33 11 -0.66 11 -1 11 C-1.66 8.36 -2.32 5.72 -3 3 C-6.63 2.67 -10.26 2.34 -14 2 C-14.33 2.99 -14.66 3.98 -15 5 C-15 3.68 -15 2.36 -15 1 C-12.68753088 0.83290546 -10.37502385 0.66633538 -8.0625 0.5 C-6.77472656 0.4071875 -5.48695313 0.314375 -4.16015625 0.21875 C-1 0 -1 0 0 0 Z " fill="#3F3032" transform="translate(252,219)"/>
<path d="M0 0 C0 4.62 0 9.24 0 14 C-0.66 14 -1.32 14 -2 14 C-2 10.04 -2 6.08 -2 2 C-2.66 2 -3.32 2 -4 2 C-4 5.96 -4 9.92 -4 14 C-4.33 14 -4.66 14 -5 14 C-5 9.71 -5 5.42 -5 1 C-2 0 -2 0 0 0 Z " fill="#A39183" transform="translate(100,111)"/>
<path d="M0 0 C0.66 0 1.32 0 2 0 C2 6.93 2 13.86 2 21 C0.35 21 -1.3 21 -3 21 C-1.68 20.67 -0.36 20.34 1 20 C0.9278125 18.89140625 0.855625 17.7828125 0.78125 16.640625 C0.6874335 15.17708759 0.59368718 13.71354569 0.5 12.25 C0.45230469 11.52039063 0.40460938 10.79078125 0.35546875 10.0390625 C0.14183103 6.68189836 0 3.36563724 0 0 Z " fill="#CBAB88" transform="translate(377,300)"/>
<path d="M0 0 C0.66 0.33 1.32 0.66 2 1 C1.34 3.64 0.68 6.28 0 9 C-0.99 9 -1.98 9 -3 9 C-3.36923077 3.46153846 -3.36923077 3.46153846 -1.5 1.125 C-1.005 0.75375 -0.51 0.3825 0 0 Z " fill="#F498C0" transform="translate(99,151)"/>
<path d="M0 0 C0 3.63 0 7.26 0 11 C-0.33 11 -0.66 11 -1 11 C-1 8.69 -1 6.38 -1 4 C-1.66 4 -2.32 4 -3 4 C-3 6.64 -3 9.28 -3 12 C-3.33 12 -3.66 12 -4 12 C-4 8.37 -4 4.74 -4 1 C-2 0 -2 0 0 0 Z " fill="#EDBA8A" transform="translate(103,112)"/>
<path d="M0 0 C1 3 1 3 0.00390625 5.04296875 C-0.47175781 5.75066406 -0.94742187 6.45835937 -1.4375 7.1875 C-1.91058594 7.90292969 -2.38367188 8.61835938 -2.87109375 9.35546875 C-3.24363281 9.89816406 -3.61617188 10.44085938 -4 11 C-4.66 10.34 -5.32 9.68 -6 9 C-5.690625 8.401875 -5.38125 7.80375 -5.0625 7.1875 C-3.89790296 4.91043228 -3.89790296 4.91043228 -3 2 C-2.01 1.34 -1.02 0.68 0 0 Z " fill="#201C2D" transform="translate(470,365)"/>
<path d="M0 0 C3.63 0 7.26 0 11 0 C11 1.98 11 3.96 11 6 C10.34 5.01 9.68 4.02 9 3 C7.06601074 2.49605344 7.06601074 2.49605344 4.9375 2.4375 C3.638125 2.293125 2.33875 2.14875 1 2 C0.67 1.34 0.34 0.68 0 0 Z " fill="#2D3948" transform="translate(240,224)"/>
<path d="M0 0 C0.66 0 1.32 0 2 0 C2.125 3.375 2.125 3.375 2 7 C0 9 0 9 -2.625 9.125 C-3.40875 9.08375 -4.1925 9.0425 -5 9 C-5 8.34 -5 7.68 -5 7 C-3.68 6.67 -2.36 6.34 -1 6 C-0.67 4.02 -0.34 2.04 0 0 Z " fill="#D18B61" transform="translate(122,116)"/>
<path d="M0 0 C2.31 0.33 4.62 0.66 7 1 C6.67 3.31 6.34 5.62 6 8 C5.01 8 4.02 8 3 8 C3 8.66 3 9.32 3 10 C2.34 9.67 1.68 9.34 1 9 C1.33 8.34 1.66 7.68 2 7 C2.99 7 3.98 7 5 7 C5 5.68 5 4.36 5 3 C3.35 2.67 1.7 2.34 0 2 C0 1.34 0 0.68 0 0 Z " fill="#A1718B" transform="translate(90,132)"/>
<path d="M0 0 C0.99 0.33 1.98 0.66 3 1 C2.67 2.32 2.34 3.64 2 5 C3.32 5.33 4.64 5.66 6 6 C5.67 7.32 5.34 8.64 5 10 C5 9.01 5 8.02 5 7 C3.35 6.67 1.7 6.34 0 6 C0 4.02 0 2.04 0 0 Z " fill="#56C3E4" transform="translate(249,246)"/>
<path d="M0 0 C0.66 0.33 1.32 0.66 2 1 C1.67 1.66 1.34 2.32 1 3 C2.32 3.33 3.64 3.66 5 4 C5 4.66 5 5.32 5 6 C3.35 6 1.7 6 0 6 C0.33 6.99 0.66 7.98 1 9 C0.34 9 -0.32 9 -1 9 C-1.09765625 2.84765625 -1.09765625 2.84765625 -1 1 C-0.67 0.67 -0.34 0.34 0 0 Z " fill="#503643" transform="translate(88,143)"/>
<path d="M0 0 C3.40312738 1.05875074 6.01353231 2.00902154 9 4 C8.67 4.66 8.34 5.32 8 6 C5.69 5.34 3.38 4.68 1 4 C0.67 2.68 0.34 1.36 0 0 Z " fill="#211F2B" transform="translate(358,25)"/>
<path d="M0 0 C-0.33 0.99 -0.66 1.98 -1 3 C-1.66 3 -2.32 3 -3 3 C-3.33 3.66 -3.66 4.32 -4 5 C-4 4.34 -4 3.68 -4 3 C-4.66 2.67 -5.32 2.34 -6 2 C-6.33 1.34 -6.66 0.68 -7 0 C-3.86650268 -1.04449911 -3.01031744 -0.93423645 0 0 Z " fill="#1F1F2D" transform="translate(383,323)"/>
<path d="M0 0 C0.66 0 1.32 0 2 0 C2 0.66 2 1.32 2 2 C5.3 2.66 8.6 3.32 12 4 C12 4.33 12 4.66 12 5 C10.5629191 5.05422947 9.12524538 5.09289723 7.6875 5.125 C6.88699219 5.14820313 6.08648437 5.17140625 5.26171875 5.1953125 C3 5 3 5 0 3 C0 2.01 0 1.02 0 0 Z " fill="#234155" transform="translate(269,258)"/>
<path d="M0 0 C0.66 0.33 1.32 0.66 2 1 C2 4.20395416 1.25664978 6.09399739 0 9 C-1.65 9 -3.3 9 -5 9 C-3.68 8.67 -2.36 8.34 -1 8 C-1 7.01 -1 6.02 -1 5 C-1.66 4.67 -2.32 4.34 -3 4 C-2.01 2.68 -1.02 1.36 0 0 Z " fill="#D6BFCE" transform="translate(127,125)"/>
<path d="M0 0 C1.98 0 3.96 0 6 0 C6 1.32 6 2.64 6 4 C4.35 4 2.7 4 1 4 C0.67 2.68 0.34 1.36 0 0 Z " fill="#DD9A6E" transform="translate(116,111)"/>
<path d="M0 0 C0.99 0.66 1.98 1.32 3 2 C1.71937515 3.7074998 0.38232443 5.37373596 -1 7 C-1.66 7 -2.32 7 -3 7 C-2.67 5.35 -2.34 3.7 -2 2 C-1.34 2 -0.68 2 0 2 C0 1.34 0 0.68 0 0 Z " fill="#201E2B" transform="translate(452,392)"/>
<path d="M0 0 C0.66 0 1.32 0 2 0 C1.34 2.31 0.68 4.62 0 7 C-0.99 6.67 -1.98 6.34 -3 6 C-3 4.68 -3 3.36 -3 2 C-2.01 2 -1.02 2 0 2 C0 1.34 0 0.68 0 0 Z " fill="#8CDFEE" transform="translate(246,210)"/>
<path d="M0 0 C0 0.66 0 1.32 0 2 C-2.5614657 4.29648649 -3.47967572 5 -7 5 C-6.6875 3.0625 -6.6875 3.0625 -6 1 C-3 0 -3 0 0 0 Z " fill="#5EC8E5" transform="translate(254,209)"/>
<path d="M0 0 C2.42520546 2.42520546 2.68564441 3.62067741 3 7 C2.0625 9.8125 2.0625 9.8125 1 12 C0.67 12 0.34 12 0 12 C-0.19401633 10.18818595 -0.38004375 8.37551468 -0.5625 6.5625 C-0.66691406 5.55316406 -0.77132812 4.54382813 -0.87890625 3.50390625 C-0.91886719 2.67761719 -0.95882812 1.85132813 -1 1 C-0.67 0.67 -0.34 0.34 0 0 Z " fill="#2D1D30" transform="translate(125,136)"/>
<path d="M0 0 C1.32 0 2.64 0 4 0 C3.49396008 2.16874252 3.00016187 3.99967627 2 6 C1.34 6 0.68 6 0 6 C0 4.02 0 2.04 0 0 Z " fill="#D9BA97" transform="translate(238,234)"/>
<path d="M0 0 C0.99 0 1.98 0 3 0 C3 1.98 3 3.96 3 6 C2.01 6 1.02 6 0 6 C0 4.02 0 2.04 0 0 Z " fill="#FEF8EC" transform="translate(118,116)"/>
<path d="M0 0 C0 0.99 0 1.98 0 3 C-1.95216435 4.95216435 -3.53199953 5.84826645 -6 7 C-6 6.01 -6 5.02 -6 4 C-3 1.8125 -3 1.8125 0 0 Z " fill="#1E1D2A" transform="translate(95,54)"/>
</svg>
